<?xml version="1.0" encoding="UTF-8"?>
<svg xmlns="http://www.w3.org/2000/svg" version="1.1" viewBox="0 0 21 21">
  <defs>
    <style>
      .cls-1 {
        fill: #fff;
      }
    </style>
  </defs>
  <!-- Generator: Adobe Illustrator 28.6.0, SVG Export Plug-In . SVG Version: 1.2.0 Build 709)  -->
  <g>
    <g id="Layer_1">
      <g>
        <path class="cls-1" d="M10.5,7.7H3.3c-1.6,0-2.8,1.3-2.8,2.8v7.2c0,1.6,1.3,2.8,2.8,2.8h7.2c1.6,0,2.8-1.3,2.8-2.8v-7.2c0-1.6-1.3-2.8-2.8-2.8ZM10.9,17c.3.3.3.7,0,1s-.3.2-.5.2-.4,0-.5-.2l-3-3-3,3c-.1.1-.3.2-.5.2s-.4,0-.5-.2c-.3-.3-.3-.7,0-1l3-3-3-3c-.3-.3-.3-.7,0-1,.3-.3.7-.3,1,0l3,3,3-3c.3-.3.7-.3,1,0s.3.7,0,1l-3,3,3,3Z"/>
        <path class="cls-1" d="M17.7.5h-7.2c-1.6,0-2.8,1.3-2.8,2.8v1.5c0,.4.3.8.8.8s.8-.3.8-.8v-1.5c0-.7.6-1.3,1.3-1.3h7.2c.7,0,1.3.6,1.3,1.3v7.2c0,.7-.6,1.3-1.3,1.3h-1.5c-.4,0-.8.3-.8.8s.3.8.8.8h1.5c1.6,0,2.8-1.3,2.8-2.8V3.3c0-1.6-1.3-2.8-2.8-2.8Z"/>
      </g>
    </g>
  </g>
</svg>